<svg width="56" height="53" viewBox="0 0 56 53" fill="none" xmlns="http://www.w3.org/2000/svg">
<path d="M20.6364 52C21.992 52 23.091 50.9127 23.091 49.5715C23.091 48.2302 21.992 47.1429 20.6364 47.1429C19.2808 47.1429 18.1819 48.2302 18.1819 49.5715C18.1819 50.9127 19.2808 52 20.6364 52Z" stroke="#9B9B9B" stroke-width="2" stroke-linecap="round" stroke-linejoin="round"/>
<path d="M47.6364 52C48.992 52 50.091 50.9127 50.091 49.5715C50.091 48.2302 48.992 47.1429 47.6364 47.1429C46.2808 47.1429 45.1819 48.2302 45.1819 49.5715C45.1819 50.9127 46.2808 52 47.6364 52Z" stroke="#9B9B9B" stroke-width="2" stroke-linecap="round" stroke-linejoin="round"/>
<path d="M1 1H10.8182L17.3964 33.5186C17.6208 34.6367 18.2356 35.641 19.1331 36.3559C20.0305 37.0707 21.1535 37.4504 22.3055 37.4286H46.1636C47.3156 37.4504 48.4386 37.0707 49.336 36.3559C50.2335 35.641 50.8483 34.6367 51.0727 33.5186L55 13.1429H13.2727" stroke="#9B9B9B" stroke-width="2" stroke-linecap="round" stroke-linejoin="round"/>
</svg>
