<svg width="60" height="41" viewBox="0 0 60 41" fill="none" xmlns="http://www.w3.org/2000/svg">
<path d="M57.6613 3.36144C55.4956 0.973896 51.4967 0 43.8603 0H16.1392C8.32781 0 4.26136 1.03672 2.10368 3.5786C0 6.05696 0 9.70863 0 14.7626V24.3955C0 34.1867 2.496 39.1579 16.1392 39.1579H43.8603C50.4827 39.1579 54.1525 38.2987 56.5266 36.1916C58.9614 34.0309 60 30.5031 60 24.3955V14.7626C60 9.43275 59.8374 5.75956 57.6613 3.36144ZM38.5203 20.909L25.9322 27.0099C25.6508 27.1463 25.343 27.214 25.0357 27.214C24.6877 27.214 24.3405 27.1271 24.0329 26.9544C23.4538 26.629 23.1002 26.047 23.1002 25.4191V13.2564C23.1002 12.6296 23.4528 12.0481 24.0308 11.7225C24.6089 11.3969 25.3279 11.3746 25.9277 11.6636L38.5159 17.7252C39.1563 18.0336 39.5583 18.6467 39.5593 19.3157C39.5602 19.9852 39.1598 20.5992 38.5203 20.909Z" fill="white"/>
</svg>
